<?xml version="1.0" standalone="no"?><!DOCTYPE svg PUBLIC "-//W3C//DTD SVG 1.1//EN" "http://www.w3.org/Graphics/SVG/1.1/DTD/svg11.dtd"><svg t="1565254929318" class="icon" viewBox="0 0 1063 1024" version="1.1" xmlns="http://www.w3.org/2000/svg" p-id="889" xmlns:xlink="http://www.w3.org/1999/xlink" width="207.6171875" height="200"><defs><style type="text/css"></style></defs><path d="M338.707692 811.323077c31.507692 70.892308 39.384615 126.030769 39.384616 165.415385h378.092307c0-114.215385-23.630769-259.938462-86.646153-315.076924-59.076923-55.138462-362.338462 78.769231-330.83077 149.661539z" fill="#FFE6D3" p-id="890"></path><path d="M634.092308 425.353846h7.876923s15.753846 31.507692 11.815384 59.076923c-3.938462 27.569231-27.569231 55.138462-27.56923 55.138462h-7.876923s23.630769-27.569231 27.56923-55.138462c3.938462-31.507692-11.815385-59.076923-11.815384-59.076923z" fill="#3A327C" p-id="891"></path><path d="M378.092308 669.538462c39.384615 0 55.138462 35.446154 55.138461 74.830769 0 39.384615-15.753846 74.830769-55.138461 74.830769s-74.830769-19.692308-70.892308-74.830769c0-39.384615 31.507692-74.830769 70.892308-74.830769z" fill="#FFC999" p-id="892"></path><path d="M464.738462 614.4c39.384615 0 55.138462 35.446154 55.138461 74.830769s-15.753846 74.830769-55.138461 74.830769-74.830769-19.692308-70.892308-74.830769c0-43.323077 31.507692-74.830769 70.892308-74.830769z" fill="#FFD3AB" p-id="893"></path><path d="M512 539.569231c39.384615-15.753846 66.953846 3.938462 90.584615 51.2s31.507692 86.646154 3.938462 114.215384c-31.507692 31.507692-70.892308 35.446154-102.4-27.56923-23.630769-47.261538-27.569231-122.092308 7.876923-137.846154z" fill="#FFDEC0" p-id="894"></path><path d="M500.184615 787.692308c19.692308-161.476923 90.584615-212.676923 129.969231-216.615385 114.215385-11.815385 7.876923 118.153846 43.323077 145.723077 102.4 78.769231-189.046154 192.984615-173.292308 70.892308z" fill="#FFE6D3" p-id="895"></path><path d="M626.215385 385.969231c-7.876923 15.753846-3.938462 11.815385-19.692308 11.815384-441.107692-7.876923-287.507692-326.892308-126.030769-244.184615 11.815385-181.169231 366.276923-157.538462 145.723077 232.369231z" fill="#F3645C" p-id="896"></path></svg>